<?xml version="1.0" encoding="UTF-8" standalone="no"?>
<!DOCTYPE svg PUBLIC "-//W3C//DTD SVG 1.0//EN"
 "http://www.w3.org/TR/2001/REC-SVG-20010904/DTD/svg10.dtd" [
 <!ATTLIST svg xmlns:xlink CDATA #FIXED "http://www.w3.org/1999/xlink">
]>
<!-- Generated by Graphviz version 2.20.2 (Tue Mar &#160;2 21:46:26 UTC 2010)
     For user: (arnold) Arnold Daniels,,, -->
<!-- Title: G Pages: 1 -->
<svg width="516pt" height="200pt"
 viewBox="0.00 0.00 516.00 200.00" xmlns="http://www.w3.org/2000/svg" xmlns:xlink="http://www.w3.org/1999/xlink">
<g id="graph0" class="graph" transform="scale(1 1) rotate(0) translate(4 196)">
<title>G</title>
<polygon style="fill:white;stroke:white;" points="-4,4 -4,-196 512,-196 512,4 -4,4"/>
<g id="cluster2" class="cluster"><title>cluster_default</title>
<polyline style="fill:none;stroke:none;" points="398,-16 488,-16 "/>
<path style="fill:none;stroke:none;" d="M488,-16C494,-16 500,-22 500,-28"/>
<polyline style="fill:none;stroke:none;" points="500,-28 500,-172 "/>
<path style="fill:none;stroke:none;" d="M500,-172C500,-178 494,-184 488,-184"/>
<polyline style="fill:none;stroke:none;" points="488,-184 398,-184 "/>
<path style="fill:none;stroke:none;" d="M398,-184C392,-184 386,-178 386,-172"/>
<polyline style="fill:none;stroke:none;" points="386,-172 386,-28 "/>
<path style="fill:none;stroke:none;" d="M386,-28C386,-22 392,-16 398,-16"/>
</g>
<!-- \\DBTest -->
<g id="node2" class="node"><title>\\DBTest</title>
<a xlink:href="test.src.DBTest.html" xlink:title="DBTest" target="_parent">
<polygon style="fill:none;stroke:black;" points="471,-168 415,-168 415,-132 471,-132 471,-168"/>
<text text-anchor="middle" x="443" y="-147.1" style="font-family:Courier;font-size:11.00;">DBTest</text>
</a>
</g>
<!-- \\PHPUnit_Framework_TestCase -->
<g id="node6" class="node"><title>\\PHPUnit_Framework_TestCase</title>
<ellipse style="fill:none;stroke:black;" cx="161" cy="-150" rx="161.213" ry="18"/>
<text text-anchor="middle" x="161" y="-145.9" style="font-family:Times New Roman;font-size:14.00;fill:gray;">\PHPUnit_Framework_TestCase</text>
</g>
<!-- \\DBTest&#45;&gt;\\PHPUnit_Framework_TestCase -->
<g id="edge3" class="edge"><title>\\DBTest&#45;&gt;\\PHPUnit_Framework_TestCase</title>
<path style="fill:none;stroke:black;" d="M414,-150C393,-150 364,-150 332,-150"/>
<polygon style="fill:none;stroke:black;" points="332,-146.5 322,-150 332,-153.5 332,-146.5"/>
</g>
<!-- \\DB_Exception -->
<g id="node3" class="node"><title>\\DB_Exception</title>
<a xlink:href="src.DB.Exception.html" xlink:title="DB_Exception" target="_parent">
<polygon style="fill:none;stroke:black;" points="491,-114 395,-114 395,-78 491,-78 491,-114"/>
<text text-anchor="middle" x="443" y="-93.1" style="font-family:Courier;font-size:11.00;">DB_Exception</text>
</a>
</g>
<!-- \\Exception -->
<g id="node8" class="node"><title>\\Exception</title>
<ellipse style="fill:none;stroke:black;" cx="161" cy="-96" rx="61.1496" ry="18"/>
<text text-anchor="middle" x="161" y="-91.9" style="font-family:Times New Roman;font-size:14.00;fill:gray;">\Exception</text>
</g>
<!-- \\DB_Exception&#45;&gt;\\Exception -->
<g id="edge5" class="edge"><title>\\DB_Exception&#45;&gt;\\Exception</title>
<path style="fill:none;stroke:black;" d="M394,-96C349,-96 283,-96 232,-96"/>
<polygon style="fill:none;stroke:black;" points="232,-92.5001 222,-96 232,-99.5001 232,-92.5001"/>
</g>
<!-- \\DB -->
<g id="node4" class="node"><title>\\DB</title>
<a xlink:href="src.DB.html" xlink:title="DB" target="_parent">
<polygon style="fill:none;stroke:black;" points="470,-60 416,-60 416,-24 470,-24 470,-60"/>
<text text-anchor="middle" x="443" y="-39.1" style="font-family:Courier;font-size:11.00;">DB</text>
</a>
</g>
<!-- \\mysqli -->
<g id="node10" class="node"><title>\\mysqli</title>
<ellipse style="fill:none;stroke:black;" cx="161" cy="-42" rx="43.9728" ry="18"/>
<text text-anchor="middle" x="161" y="-37.9" style="font-family:Times New Roman;font-size:14.00;fill:gray;">\mysqli</text>
</g>
<!-- \\DB&#45;&gt;\\mysqli -->
<g id="edge7" class="edge"><title>\\DB&#45;&gt;\\mysqli</title>
<path style="fill:none;stroke:black;" d="M416,-42C370,-42 276,-42 216,-42"/>
<polygon style="fill:none;stroke:black;" points="216,-38.5001 206,-42 216,-45.5001 216,-38.5001"/>
</g>
</g>
</svg>
